<svg width="117" height="45" viewBox="0 0 117 45" fill="none" xmlns="http://www.w3.org/2000/svg">
<path d="M1.51264 14.3743C2.50138 14.5411 3.43945 13.8831 3.60903 12.9044L3.60921 12.9033L3.61092 12.8941C3.61325 12.8815 3.61745 12.8593 3.62369 12.8281C3.63617 12.7657 3.65674 12.6675 3.68661 12.5386C3.74646 12.2803 3.84308 11.9017 3.98595 11.4431C4.27374 10.5195 4.7386 9.30611 5.44589 8.109C6.85933 5.7167 9.08625 3.59997 12.7225 3.59997C16.5075 3.59997 19.4338 5.83056 22.9483 8.60708L23.1357 8.75514C24.9735 10.2078 26.9933 11.8045 29.3225 12.9279C31.1509 13.8097 33.1698 14.3999 35.4409 14.3999C37.7019 14.3999 39.7131 13.8149 41.535 12.9395C43.8744 11.8155 45.9019 10.2129 47.746 8.75514L47.9334 8.60708C51.4479 5.83056 54.3742 3.59997 58.1592 3.59997C61.9441 3.59997 64.8704 5.83056 68.385 8.60708L68.5723 8.75513C70.4339 10.2266 72.4823 11.8459 74.8497 12.9712C76.6541 13.829 78.6439 14.3999 80.8775 14.3999C83.1011 14.3999 85.083 13.8341 86.881 12.9827C89.2587 11.8569 91.3147 10.2317 93.1826 8.75513L93.37 8.60708C96.8845 5.83056 99.8108 3.59997 103.596 3.59997C107.26 3.59997 109.668 5.74878 111.256 8.17841C112.047 9.38752 112.592 10.6105 112.94 11.5386C113.113 11.9998 113.234 12.3806 113.311 12.6405C113.349 12.7702 113.376 12.8692 113.393 12.9323C113.401 12.9638 113.407 12.9863 113.41 12.9992L113.412 13.008L113.412 13.0099L113.413 13.0107L113.413 13.0114C113.642 13.9776 114.618 14.5781 115.594 14.353C116.572 14.1276 117.18 13.16 116.952 12.1918L115.182 12.5999C116.952 12.1918 116.952 12.1911 116.952 12.1903L116.951 12.1886L116.95 12.1844L116.948 12.173L116.939 12.1386C116.932 12.1106 116.923 12.0725 116.91 12.0249C116.885 11.9298 116.849 11.7968 116.8 11.6312C116.702 11.3004 116.555 10.8375 116.348 10.2862C115.937 9.18932 115.282 7.71232 114.307 6.22147C112.365 3.25114 108.979 0 103.596 0C98.4316 0 94.571 3.05168 91.2906 5.64474L91.1033 5.7928C87.5887 8.56932 84.6624 10.7999 80.8775 10.7999C77.0925 10.7999 74.1662 8.56932 70.6517 5.7928L70.4643 5.64474C67.1839 3.05168 63.3233 0 58.1592 0C52.995 0 49.1344 3.05167 45.854 5.64473L45.6667 5.7928C42.1521 8.56932 39.2258 10.7999 35.4409 10.7999C31.6559 10.7999 28.7296 8.56932 25.2151 5.7928L25.0277 5.64473C21.7473 3.05167 17.8867 0 12.7225 0C7.31109 0 4.08561 3.28322 2.3086 6.29087C1.42066 7.79374 0.855779 9.28032 0.512628 10.3817C0.340027 10.9356 0.220881 11.4007 0.143832 11.7331C0.105258 11.8995 0.0770911 12.0333 0.0579509 12.1291C0.048377 12.177 0.0410498 12.2154 0.0357985 12.2437L0.0294528 12.2785L0.027405 12.2901L0.0266552 12.2944L0.0263479 12.2962C0.0262129 12.297 0.0260854 12.2977 1.81776 12.5999L0.0260853 12.2977C-0.142424 13.2777 0.52313 14.2074 1.51264 14.3743Z" fill="white"/>
<path d="M3.60903 28.2042C3.43945 29.183 2.50138 29.8409 1.51264 29.6742C0.52313 29.5073 -0.142424 28.5776 0.0260853 27.5976L1.81776 27.8998C0.0260854 27.5976 0.0262129 27.5968 0.0263479 27.5961L0.0266552 27.5943L0.027405 27.59L0.0294528 27.5784L0.0357985 27.5436C0.0410498 27.5153 0.048377 27.4768 0.0579509 27.4289C0.0770911 27.3332 0.105258 27.1994 0.143832 27.033C0.220881 26.7006 0.340027 26.2355 0.512628 25.6815C0.855779 24.5802 1.42066 23.0936 2.3086 21.5907C4.08561 18.5831 7.31109 15.2999 12.7225 15.2999C17.8867 15.2999 21.7473 18.3515 25.0277 20.9446L25.2151 21.0927C28.7296 23.8692 31.6559 26.0998 35.4409 26.0998C39.2258 26.0998 42.1521 23.8692 45.6667 21.0927L45.854 20.9446C49.1344 18.3515 52.995 15.2999 58.1592 15.2999C63.3233 15.2999 67.1839 18.3515 70.4643 20.9446L70.6517 21.0927C74.1662 23.8692 77.0925 26.0998 80.8775 26.0998C84.6624 26.0998 87.5887 23.8692 91.1033 21.0927L91.2906 20.9446C94.571 18.3515 98.4316 15.2999 103.596 15.2999C108.979 15.2999 112.365 18.551 114.307 21.5213C115.282 23.0122 115.937 24.4892 116.348 25.5861C116.555 26.1374 116.702 26.6003 116.8 26.9311C116.849 27.0967 116.885 27.2297 116.91 27.3248C116.923 27.3724 116.932 27.4105 116.939 27.4385L116.948 27.4729L116.95 27.4842L116.951 27.4884L116.952 27.4902C116.952 27.4909 116.952 27.4916 115.182 27.8998L116.952 27.4916C117.18 28.4599 116.572 29.4275 115.594 29.6529C114.618 29.878 113.642 29.2775 113.413 28.3112L113.413 28.3106L113.412 28.3098L113.412 28.3079L113.41 28.299C113.407 28.2862 113.401 28.2637 113.393 28.2321C113.376 28.169 113.349 28.07 113.311 27.9403C113.234 27.6805 113.113 27.2996 112.94 26.8385C112.592 25.9104 112.047 24.6874 111.256 23.4783C109.668 21.0486 107.26 18.8998 103.596 18.8998C99.8108 18.8998 96.8845 21.1304 93.37 23.9069L93.1826 24.055C91.3148 25.5315 89.2587 27.1567 86.881 28.2826C85.083 29.1339 83.1011 29.6997 80.8775 29.6997C78.6439 29.6997 76.6541 29.1289 74.8497 28.2711C72.4823 27.1457 70.4339 25.5265 68.5723 24.055L68.385 23.9069C64.8704 21.1304 61.9441 18.8998 58.1592 18.8998C54.3742 18.8998 51.4479 21.1304 47.9334 23.9069L47.746 24.055C45.9019 25.5127 43.8744 27.1154 41.535 28.2394C39.7131 29.1147 37.7019 29.6997 35.4409 29.6997C33.1698 29.6997 31.1509 29.1095 29.3225 28.2277C26.9933 27.1043 24.9735 25.5077 23.1357 24.055L22.9483 23.9069C19.4338 21.1304 16.5075 18.8998 12.7225 18.8998C9.08625 18.8998 6.85933 21.0166 5.44589 23.4089C4.7386 24.606 4.27374 25.8194 3.98595 26.743C3.84308 27.2015 3.74646 27.5802 3.68661 27.8384C3.65674 27.9673 3.63617 28.0655 3.62369 28.128C3.61745 28.1592 3.61325 28.1814 3.61092 28.1939L3.60921 28.2032L3.60903 28.2042Z" fill="white"/>
<path d="M3.60921 43.5031L3.60913 43.5035C3.43981 44.4826 2.50157 45.1408 1.51264 44.9741C0.52313 44.8072 -0.142424 43.8774 0.0260853 42.8974L1.81776 43.1996C0.0260854 42.8974 0.0262129 42.8967 0.0263479 42.8959L0.0266552 42.8941L0.027405 42.8898L0.0294528 42.8783L0.0357985 42.8435C0.0410498 42.8151 0.048377 42.7767 0.0579509 42.7288C0.0770911 42.633 0.105258 42.4992 0.143832 42.3328C0.220881 42.0004 0.340027 41.5353 0.512628 40.9814C0.855779 39.8801 1.42066 38.3935 2.3086 36.8906C4.08561 33.8829 7.31109 30.5997 12.7225 30.5997C17.8867 30.5997 21.7473 33.6514 25.0277 36.2445L25.2151 36.3925C28.7296 39.169 31.6559 41.3996 35.4409 41.3996C39.2258 41.3996 42.1521 39.169 45.6667 36.3925L45.854 36.2445C49.1344 33.6514 52.995 30.5997 58.1592 30.5997C63.3233 30.5997 67.1839 33.6514 70.4643 36.2445L70.6517 36.3925C74.1662 39.169 77.0925 41.3996 80.8775 41.3996C84.6624 41.3996 87.5887 39.169 91.1033 36.3925L91.2906 36.2445C94.571 33.6514 98.4316 30.5997 103.596 30.5997C108.979 30.5997 112.365 33.8509 114.307 36.8212C115.282 38.312 115.937 39.789 116.348 40.8859C116.555 41.4373 116.702 41.9002 116.8 42.2309C116.849 42.3965 116.885 42.5296 116.91 42.6246C116.923 42.6722 116.932 42.7103 116.939 42.7384L116.948 42.7727L116.95 42.7841L116.951 42.7883L116.952 42.79C116.952 42.7908 116.952 42.7915 115.182 43.1996L116.952 42.7915C117.18 43.7597 116.572 44.7273 115.594 44.9527C114.618 45.1779 113.642 44.5773 113.413 43.6111L113.413 43.6104L113.412 43.6096L113.412 43.6077L113.41 43.5989C113.408 43.5931 113.406 43.5853 113.404 43.5756C113.401 43.5639 113.397 43.5493 113.393 43.532C113.376 43.4689 113.349 43.3699 113.311 43.2402C113.234 42.9803 113.113 42.5995 112.94 42.1383C112.592 41.2102 112.047 39.9873 111.256 38.7781C109.668 36.3485 107.26 34.1997 103.596 34.1997C99.8108 34.1997 96.8845 36.4303 93.37 39.2068L93.1826 39.3549C91.3148 40.8314 89.2587 42.4566 86.881 43.5824C85.083 44.4338 83.1011 44.9996 80.8775 44.9996C78.6439 44.9996 76.6541 44.4287 74.8497 43.571C72.4823 42.4456 70.4339 40.8264 68.5723 39.3549L68.385 39.2068C64.8704 36.4303 61.9441 34.1997 58.1592 34.1997C54.3742 34.1997 51.4479 36.4303 47.9334 39.2068L47.746 39.3549C45.9019 40.8126 43.8744 42.4153 41.535 43.5392C39.7131 44.4146 37.7019 44.9996 35.4409 44.9996C33.1698 44.9996 31.1508 44.4094 29.3225 43.5276C26.9933 42.4042 24.9735 40.8076 23.1357 39.3549L22.9483 39.2068C19.4338 36.4303 16.5075 34.1997 12.7225 34.1997C9.08625 34.1997 6.85933 36.3164 5.44589 38.7087C4.7386 39.9058 4.27374 41.1192 3.98595 42.0429C3.84308 42.5014 3.74646 42.8801 3.68661 43.1383C3.65674 43.2672 3.63617 43.3654 3.62369 43.4279C3.61745 43.4591 3.61325 43.4813 3.61092 43.4938L3.60921 43.5031Z" fill="white"/>
</svg>
