<svg width="163" height="83" viewBox="0 0 163 83" fill="none" xmlns="http://www.w3.org/2000/svg">
<path fill-rule="evenodd" clip-rule="evenodd" d="M41.403 0L42.7091 0.735145L61.4515 11.2844L80.1939 0.735145L81.5 0L82.8061 0.735145L101.548 11.2844L120.291 0.735145L121.597 0L122.903 0.735145L141.645 11.2844L160.388 0.735145L163 5.42357L142.952 16.708L141.645 17.4431L140.339 16.708L121.597 6.15872L102.855 16.708L101.548 17.4431L100.242 16.708L81.5 6.15872L62.7576 16.708L61.4515 17.4431L60.1454 16.708L41.403 6.15872L22.6607 16.708L21.3546 17.4431L20.0485 16.708L0 5.42357L2.6122 0.735145L21.3546 11.2844L40.0969 0.735145L41.403 0ZM41.403 32.7785L42.7091 33.5136L61.4515 44.0628L80.1939 33.5136L81.5 32.7785L82.8061 33.5136L101.548 44.0628L120.291 33.5136L121.597 32.7785L122.903 33.5136L141.645 44.0628L160.388 33.5136L163 38.202L142.952 49.4864L141.645 50.2215L140.339 49.4864L121.597 38.9372L102.855 49.4864L101.548 50.2215L100.242 49.4864L81.5 38.9372L62.7576 49.4864L61.4515 50.2215L60.1454 49.4864L41.403 38.9372L22.6607 49.4864L21.3546 50.2215L20.0485 49.4864L0 38.202L2.6122 33.5136L21.3546 44.0628L40.0969 33.5136L41.403 32.7785ZM42.7091 66.292L41.403 65.5569L40.0969 66.292L21.3546 76.8413L2.6122 66.292L0 70.9805L20.0485 82.2649L21.3546 83L22.6607 82.2649L41.403 71.7156L60.1454 82.2649L61.4515 83L62.7576 82.2649L81.5 71.7156L100.242 82.2649L101.548 83L102.855 82.2649L121.597 71.7156L140.339 82.2649L141.645 83L142.952 82.2649L163 70.9805L160.388 66.292L141.645 76.8413L122.903 66.292L121.597 65.5569L120.291 66.292L101.548 76.8413L82.8061 66.292L81.5 65.5569L80.1939 66.292L61.4515 76.8413L42.7091 66.292Z" fill="#454545"/>
</svg>
