<svg width="138" height="169" viewBox="0 0 138 169" fill="none" xmlns="http://www.w3.org/2000/svg">
<path fill-rule="evenodd" clip-rule="evenodd" d="M0.0954117 84.1787C0.0941863 85.2598 0.968595 86.1374 2.04842 86.1386L135.004 86.2893C136.084 86.2905 136.96 85.415 136.961 84.3339C136.963 83.2528 136.088 82.3752 135.008 82.374L2.05286 82.2233C0.973033 82.2221 0.096637 83.0976 0.0954117 84.1787ZM19.6322 97.9044C19.631 98.9855 20.5053 99.863 21.5852 99.8643L134.989 99.9928C136.068 99.994 136.945 99.1185 136.946 98.0374C136.947 96.9563 136.073 96.0787 134.993 96.0775L21.5896 95.949C20.5097 95.9477 19.6334 96.8233 19.6322 97.9044ZM39.1689 111.63C39.1677 112.711 40.0421 113.589 41.122 113.59L134.973 113.696C136.053 113.698 136.929 112.822 136.93 111.741C136.932 110.66 136.057 109.782 134.977 109.781L41.1264 109.675C40.0465 109.673 39.1702 110.549 39.1689 111.63ZM58.7057 125.356C58.7045 126.437 59.5788 127.314 60.6587 127.316L134.957 127.4C136.037 127.401 136.914 126.525 136.915 125.444C136.916 124.363 136.042 123.486 134.962 123.485L60.6632 123.4C59.5833 123.399 58.7069 124.275 58.7057 125.356ZM78.2425 139.081C78.2412 140.163 79.1156 141.04 80.1955 141.041L134.942 141.103C136.022 141.105 136.898 140.229 136.899 139.148C136.901 138.067 136.026 137.189 134.946 137.188L80.1999 137.126C79.12 137.125 78.2437 138 78.2425 139.081ZM97.7792 152.807C97.778 153.888 98.6524 154.766 99.7322 154.767L134.926 154.807C136.006 154.808 136.883 153.933 136.884 152.851C136.885 151.77 136.011 150.893 134.931 150.892L99.7367 150.852C98.6568 150.85 97.7805 151.726 97.7792 152.807ZM119.269 168.493C118.189 168.491 117.315 167.614 117.316 166.533C117.317 165.452 118.194 164.576 119.273 164.577L134.915 164.595C135.995 164.596 136.87 165.474 136.868 166.555C136.867 167.636 135.991 168.512 134.911 168.51L119.269 168.493ZM119.46 0.135219C118.38 0.133995 117.504 1.00954 117.502 2.09064C117.501 3.17176 118.376 4.04929 119.455 4.05051L135.097 4.06824C136.177 4.06947 137.053 3.19392 137.055 2.1128C137.056 1.0317 136.182 0.154172 135.102 0.152948L119.46 0.135219ZM99.892 13.8166C98.8121 13.8153 97.9358 14.6909 97.9346 15.772C97.9333 16.8531 98.8077 17.7306 99.8876 17.7319L135.082 17.7717C136.162 17.773 137.038 16.8974 137.039 15.8163C137.04 14.7352 136.166 13.8577 135.086 13.8565L99.892 13.8166ZM80.3242 27.4979C79.2443 27.4967 78.368 28.3722 78.3667 29.4533C78.3655 30.5344 79.2398 31.412 80.3197 31.4132L135.066 31.4753C136.146 31.4765 137.022 30.6009 137.024 29.5198C137.025 28.4387 136.15 27.5612 135.071 27.56L80.3242 27.4979ZM60.7563 41.1793C59.6765 41.178 58.8001 42.0536 58.7989 43.1347C58.7977 44.2158 59.672 45.0933 60.7519 45.0945L135.051 45.1788C136.131 45.18 137.007 44.3044 137.008 43.2233C137.009 42.1422 136.135 41.2647 135.055 41.2635L60.7563 41.1793ZM41.1885 54.8606C40.1086 54.8594 39.2323 55.7349 39.2311 56.816C39.2298 57.8971 40.1042 58.7747 41.1841 58.7759L135.035 58.8823C136.115 58.8835 136.991 58.0079 136.993 56.9268C136.994 55.8457 136.119 54.9682 135.04 54.967L41.1885 54.8606ZM21.6207 68.542C20.5408 68.5407 19.6645 69.4163 19.6632 70.4974C19.662 71.5785 20.5364 72.456 21.6163 72.4572L135.02 72.5858C136.099 72.587 136.976 71.7115 136.977 70.6304C136.978 69.5493 136.104 68.6717 135.024 68.6705L21.6207 68.542Z" fill="white"/>
</svg>
