<svg width="139" height="139" viewBox="0 0 139 139" fill="none" xmlns="http://www.w3.org/2000/svg">
<path fill-rule="evenodd" clip-rule="evenodd" d="M1.08594 2.17188C1.68568 2.17188 2.17188 1.68568 2.17188 1.08594C2.17188 0.486191 1.68568 0 1.08594 0C0.486191 0 0 0.486191 0 1.08594C0 1.68568 0.486191 2.17188 1.08594 2.17188ZM1.08594 93.3906C1.68568 93.3906 2.17188 92.9044 2.17188 92.3047C2.17188 91.7049 1.68568 91.2188 1.08594 91.2188C0.486191 91.2188 0 91.7049 0 92.3047C0 92.9044 0.486191 93.3906 1.08594 93.3906ZM93.3906 1.08594C93.3906 1.68568 92.9044 2.17188 92.3047 2.17188C91.7049 2.17188 91.2188 1.68568 91.2188 1.08594C91.2188 0.486191 91.7049 0 92.3047 0C92.9044 0 93.3906 0.486191 93.3906 1.08594ZM92.3047 93.3906C92.9044 93.3906 93.3906 92.9044 93.3906 92.3047C93.3906 91.7049 92.9044 91.2188 92.3047 91.2188C91.7049 91.2188 91.2188 91.7049 91.2188 92.3047C91.2188 92.9044 91.7049 93.3906 92.3047 93.3906ZM2.17188 46.6953C2.17188 47.2951 1.68568 47.7812 1.08594 47.7812C0.486191 47.7812 0 47.2951 0 46.6953C0 46.0956 0.486191 45.6094 1.08594 45.6094C1.68568 45.6094 2.17188 46.0956 2.17188 46.6953ZM1.08594 139C1.68568 139 2.17188 138.514 2.17188 137.914C2.17188 137.314 1.68568 136.828 1.08594 136.828C0.486191 136.828 0 137.314 0 137.914C0 138.514 0.486191 139 1.08594 139ZM93.3906 46.6953C93.3906 47.2951 92.9044 47.7812 92.3047 47.7812C91.7049 47.7812 91.2188 47.2951 91.2188 46.6953C91.2188 46.0956 91.7049 45.6094 92.3047 45.6094C92.9044 45.6094 93.3906 46.0956 93.3906 46.6953ZM92.3047 139C92.9044 139 93.3906 138.514 93.3906 137.914C93.3906 137.314 92.9044 136.828 92.3047 136.828C91.7049 136.828 91.2188 137.314 91.2188 137.914C91.2188 138.514 91.7049 139 92.3047 139ZM47.7812 1.08594C47.7812 1.68568 47.2951 2.17188 46.6953 2.17188C46.0956 2.17188 45.6094 1.68568 45.6094 1.08594C45.6094 0.486191 46.0956 0 46.6953 0C47.2951 0 47.7812 0.486191 47.7812 1.08594ZM46.6953 93.3906C47.2951 93.3906 47.7812 92.9044 47.7812 92.3047C47.7812 91.7049 47.2951 91.2188 46.6953 91.2188C46.0956 91.2188 45.6094 91.7049 45.6094 92.3047C45.6094 92.9044 46.0956 93.3906 46.6953 93.3906ZM139 1.08594C139 1.68568 138.514 2.17188 137.914 2.17188C137.314 2.17188 136.828 1.68568 136.828 1.08594C136.828 0.486191 137.314 0 137.914 0C138.514 0 139 0.486191 139 1.08594ZM137.914 93.3906C138.514 93.3906 139 92.9044 139 92.3047C139 91.7049 138.514 91.2188 137.914 91.2188C137.314 91.2188 136.828 91.7049 136.828 92.3047C136.828 92.9044 137.314 93.3906 137.914 93.3906ZM47.7812 46.6953C47.7812 47.2951 47.2951 47.7812 46.6953 47.7812C46.0956 47.7812 45.6094 47.2951 45.6094 46.6953C45.6094 46.0956 46.0956 45.6094 46.6953 45.6094C47.2951 45.6094 47.7812 46.0956 47.7812 46.6953ZM46.6953 139C47.2951 139 47.7812 138.514 47.7812 137.914C47.7812 137.314 47.2951 136.828 46.6953 136.828C46.0956 136.828 45.6094 137.314 45.6094 137.914C45.6094 138.514 46.0956 139 46.6953 139ZM139 46.6953C139 47.2951 138.514 47.7812 137.914 47.7812C137.314 47.7812 136.828 47.2951 136.828 46.6953C136.828 46.0956 137.314 45.6094 137.914 45.6094C138.514 45.6094 139 46.0956 139 46.6953ZM137.914 139C138.514 139 139 138.514 139 137.914C139 137.314 138.514 136.828 137.914 136.828C137.314 136.828 136.828 137.314 136.828 137.914C136.828 138.514 137.314 139 137.914 139Z" fill="white"/>
</svg>
