<svg width="164" height="38" viewBox="0 0 164 38" fill="none" xmlns="http://www.w3.org/2000/svg">
<path fill-rule="evenodd" clip-rule="evenodd" d="M156.741 3.14617C156.745 4.87742 158.151 6.27832 159.882 6.27516C161.613 6.27199 163.014 4.86597 163.011 3.13471C163.008 1.40346 161.602 0.00256423 159.87 0.00572736C158.139 0.0088905 156.738 1.41491 156.741 3.14617ZM125.394 3.20344C125.397 4.9347 126.803 6.33559 128.535 6.33243C130.266 6.32927 131.667 4.92324 131.664 3.19199C131.661 1.46073 130.255 0.0598379 128.523 0.063001C126.792 0.0661641 125.391 1.47219 125.394 3.20344ZM97.1876 6.3897C95.4564 6.39287 94.0503 4.99197 94.0472 3.26072C94.044 1.52946 95.4449 0.123438 97.1762 0.120275C98.9074 0.117112 100.313 1.51801 100.317 3.24926C100.32 4.98052 98.9189 6.38654 97.1876 6.3897ZM62.7 3.31799C62.7032 5.04924 64.1092 6.45014 65.8405 6.44698C67.5717 6.44381 68.9726 5.03779 68.9695 3.30654C68.9663 1.57528 67.5603 0.174385 65.829 0.177548C64.0978 0.180711 62.6969 1.58673 62.7 3.31799ZM34.4933 6.50425C32.7621 6.50741 31.356 5.10652 31.3529 3.37526C31.3497 1.64401 32.7506 0.237985 34.4819 0.234822C36.2131 0.231659 37.6192 1.63255 37.6223 3.36381C37.6255 5.09506 36.2246 6.50109 34.4933 6.50425ZM0.00574001 3.43254C0.00890315 5.16379 1.41494 6.56469 3.14618 6.56152C4.87744 6.55836 6.27833 5.15234 6.27517 3.42108C6.27201 1.68983 4.86599 0.288932 3.13473 0.292096C1.40348 0.295259 0.00257687 1.70128 0.00574001 3.43254ZM159.939 37.6223C158.208 37.6255 156.802 36.2246 156.799 34.4933C156.796 32.7621 158.196 31.356 159.928 31.3529C161.659 31.3497 163.065 32.7506 163.068 34.4819C163.071 36.2131 161.67 37.6191 159.939 37.6223ZM125.452 34.5506C125.455 36.2818 126.861 37.6827 128.592 37.6796C130.323 37.6764 131.724 36.2704 131.721 34.5391C131.718 32.8079 130.312 31.407 128.581 31.4101C126.849 31.4133 125.448 32.8193 125.452 34.5506ZM97.2449 37.7368C95.5136 37.74 94.1076 36.3391 94.1044 34.6079C94.1013 32.8766 95.5022 31.4706 97.2334 31.4674C98.9647 31.4643 100.371 32.8651 100.374 34.5964C100.377 36.3277 98.9761 37.7337 97.2449 37.7368ZM62.7573 34.6651C62.7605 36.3964 64.1665 37.7973 65.8977 37.7941C67.629 37.791 69.0299 36.3849 69.0267 34.6537C69.0236 32.9224 67.6176 31.5215 65.8863 31.5247C64.155 31.5279 62.7541 32.9339 62.7573 34.6651ZM34.5506 37.8514C32.8193 37.8546 31.4133 36.4537 31.4102 34.7224C31.407 32.9912 32.8079 31.5851 34.5391 31.582C36.2704 31.5788 37.6764 32.9797 37.6796 34.711C37.6828 36.4422 36.2819 37.8482 34.5506 37.8514ZM0.0630137 34.7797C0.0661768 36.5109 1.47221 37.9118 3.20346 37.9087C4.93471 37.9055 6.33561 36.4995 6.33244 34.7682C6.32928 33.037 4.92326 31.6361 3.192 31.6392C1.46076 31.6424 0.0598505 33.0484 0.0630137 34.7797Z" fill="#5C5C5C"/>
</svg>
