<svg width="194" height="108" viewBox="0 0 194 108" fill="none" xmlns="http://www.w3.org/2000/svg">
<path fill-rule="evenodd" clip-rule="evenodd" d="M1.51562 1.6875C2.35268 1.6875 3.03125 1.30974 3.03125 0.84375C3.03125 0.37776 2.35268 0 1.51562 0C0.678568 0 0 0.37776 0 0.84375C0 1.30974 0.678568 1.6875 1.51562 1.6875ZM1.51562 72.5625C2.35268 72.5625 3.03125 72.1847 3.03125 71.7188C3.03125 71.2528 2.35268 70.875 1.51562 70.875C0.678568 70.875 0 71.2528 0 71.7188C0 72.1847 0.678568 72.5625 1.51562 72.5625ZM130.344 0.84375C130.344 1.30974 129.665 1.6875 128.828 1.6875C127.991 1.6875 127.312 1.30974 127.312 0.84375C127.312 0.37776 127.991 0 128.828 0C129.665 0 130.344 0.37776 130.344 0.84375ZM128.828 72.5625C129.665 72.5625 130.344 72.1847 130.344 71.7188C130.344 71.2528 129.665 70.875 128.828 70.875C127.991 70.875 127.312 71.2528 127.312 71.7188C127.312 72.1847 127.991 72.5625 128.828 72.5625ZM3.03125 36.2812C3.03125 36.7472 2.35268 37.125 1.51562 37.125C0.678568 37.125 0 36.7472 0 36.2812C0 35.8153 0.678568 35.4375 1.51562 35.4375C2.35268 35.4375 3.03125 35.8153 3.03125 36.2812ZM1.51562 108C2.35268 108 3.03125 107.622 3.03125 107.156C3.03125 106.69 2.35268 106.312 1.51562 106.312C0.678568 106.312 0 106.69 0 107.156C0 107.622 0.678568 108 1.51562 108ZM130.344 36.2812C130.344 36.7472 129.665 37.125 128.828 37.125C127.991 37.125 127.312 36.7472 127.312 36.2812C127.312 35.8153 127.991 35.4375 128.828 35.4375C129.665 35.4375 130.344 35.8153 130.344 36.2812ZM128.828 108C129.665 108 130.344 107.622 130.344 107.156C130.344 106.69 129.665 106.312 128.828 106.312C127.991 106.312 127.312 106.69 127.312 107.156C127.312 107.622 127.991 108 128.828 108ZM66.6875 0.84375C66.6875 1.30974 66.0089 1.6875 65.1719 1.6875C64.3348 1.6875 63.6562 1.30974 63.6562 0.84375C63.6562 0.37776 64.3348 0 65.1719 0C66.0089 0 66.6875 0.37776 66.6875 0.84375ZM65.1719 72.5625C66.0089 72.5625 66.6875 72.1847 66.6875 71.7188C66.6875 71.2528 66.0089 70.875 65.1719 70.875C64.3348 70.875 63.6562 71.2528 63.6562 71.7188C63.6562 72.1847 64.3348 72.5625 65.1719 72.5625ZM194 0.84375C194 1.30974 193.321 1.6875 192.484 1.6875C191.647 1.6875 190.969 1.30974 190.969 0.84375C190.969 0.37776 191.647 0 192.484 0C193.321 0 194 0.37776 194 0.84375ZM192.484 72.5625C193.321 72.5625 194 72.1847 194 71.7188C194 71.2528 193.321 70.875 192.484 70.875C191.647 70.875 190.969 71.2528 190.969 71.7188C190.969 72.1847 191.647 72.5625 192.484 72.5625ZM66.6875 36.2812C66.6875 36.7472 66.0089 37.125 65.1719 37.125C64.3348 37.125 63.6562 36.7472 63.6562 36.2812C63.6562 35.8153 64.3348 35.4375 65.1719 35.4375C66.0089 35.4375 66.6875 35.8153 66.6875 36.2812ZM65.1719 108C66.0089 108 66.6875 107.622 66.6875 107.156C66.6875 106.69 66.0089 106.312 65.1719 106.312C64.3348 106.312 63.6562 106.69 63.6562 107.156C63.6562 107.622 64.3348 108 65.1719 108ZM194 36.2812C194 36.7472 193.321 37.125 192.484 37.125C191.647 37.125 190.969 36.7472 190.969 36.2812C190.969 35.8153 191.647 35.4375 192.484 35.4375C193.321 35.4375 194 35.8153 194 36.2812ZM192.484 108C193.321 108 194 107.622 194 107.156C194 106.69 193.321 106.312 192.484 106.312C191.647 106.312 190.969 106.69 190.969 107.156C190.969 107.622 191.647 108 192.484 108Z" fill="white"/>
</svg>
