<svg width="44" height="194" viewBox="0 0 44 194" fill="none" xmlns="http://www.w3.org/2000/svg">
<path fill-rule="evenodd" clip-rule="evenodd" d="M3.66667 7.46154C5.69171 7.46154 7.33333 5.79122 7.33333 3.73077C7.33333 1.67032 5.69171 0 3.66667 0C1.64162 0 0 1.67032 0 3.73077C0 5.79122 1.64162 7.46154 3.66667 7.46154ZM3.66667 44.7692C5.69171 44.7692 7.33333 43.0989 7.33333 41.0385C7.33333 38.978 5.69171 37.3077 3.66667 37.3077C1.64162 37.3077 0 38.978 0 41.0385C0 43.0989 1.64162 44.7692 3.66667 44.7692ZM7.33333 78.3462C7.33333 80.4066 5.69171 82.0769 3.66667 82.0769C1.64162 82.0769 0 80.4066 0 78.3462C0 76.2857 1.64162 74.6154 3.66667 74.6154C5.69171 74.6154 7.33333 76.2857 7.33333 78.3462ZM3.66667 119.385C5.69171 119.385 7.33333 117.714 7.33333 115.654C7.33333 113.593 5.69171 111.923 3.66667 111.923C1.64162 111.923 0 113.593 0 115.654C0 117.714 1.64162 119.385 3.66667 119.385ZM7.33333 152.962C7.33333 155.022 5.69171 156.692 3.66667 156.692C1.64162 156.692 0 155.022 0 152.962C0 150.901 1.64162 149.231 3.66667 149.231C5.69171 149.231 7.33333 150.901 7.33333 152.962ZM3.66667 194C5.69171 194 7.33333 192.33 7.33333 190.269C7.33333 188.209 5.69171 186.538 3.66667 186.538C1.64162 186.538 0 188.209 0 190.269C0 192.33 1.64162 194 3.66667 194ZM44 3.73077C44 5.79122 42.3584 7.46154 40.3333 7.46154C38.3083 7.46154 36.6667 5.79122 36.6667 3.73077C36.6667 1.67032 38.3083 0 40.3333 0C42.3584 0 44 1.67032 44 3.73077ZM40.3333 44.7692C42.3584 44.7692 44 43.0989 44 41.0385C44 38.978 42.3584 37.3077 40.3333 37.3077C38.3083 37.3077 36.6667 38.978 36.6667 41.0385C36.6667 43.0989 38.3083 44.7692 40.3333 44.7692ZM44 78.3462C44 80.4066 42.3584 82.0769 40.3333 82.0769C38.3083 82.0769 36.6667 80.4066 36.6667 78.3462C36.6667 76.2857 38.3083 74.6154 40.3333 74.6154C42.3584 74.6154 44 76.2857 44 78.3462ZM40.3333 119.385C42.3584 119.385 44 117.714 44 115.654C44 113.593 42.3584 111.923 40.3333 111.923C38.3083 111.923 36.6667 113.593 36.6667 115.654C36.6667 117.714 38.3083 119.385 40.3333 119.385ZM44 152.962C44 155.022 42.3584 156.692 40.3333 156.692C38.3083 156.692 36.6667 155.022 36.6667 152.962C36.6667 150.901 38.3083 149.231 40.3333 149.231C42.3584 149.231 44 150.901 44 152.962ZM40.3333 194C42.3584 194 44 192.33 44 190.269C44 188.209 42.3584 186.538 40.3333 186.538C38.3083 186.538 36.6667 188.209 36.6667 190.269C36.6667 192.33 38.3083 194 40.3333 194Z" fill="white"/>
</svg>
