<svg width="51" height="140" viewBox="0 0 51 140" fill="none" xmlns="http://www.w3.org/2000/svg">
<path fill-rule="evenodd" clip-rule="evenodd" d="M0.563544 102.713L-1.58266e-06 103.793L0.563544 104.872L18.2053 138.665C18.8278 139.858 20.3416 140.341 21.5866 139.745C22.8315 139.148 23.3362 137.699 22.7137 136.506L5.63545 103.793L22.7137 71.0795L23.2772 70L22.7137 68.9205L5.63545 36.2072L22.7137 3.49377C23.3361 2.30142 22.8315 0.851531 21.5866 0.255355C20.3416 -0.340821 18.8278 0.14247 18.2053 1.33484L0.563541 35.1277L-4.53693e-06 36.2072L0.563541 37.2866L17.6418 70L0.563544 102.713ZM28.2863 102.713L27.7228 103.793L28.2863 104.872L45.9281 138.665C46.5506 139.858 48.0644 140.341 49.3094 139.745C50.5543 139.148 51.0589 137.699 50.4365 136.506L33.3582 103.793L50.4365 71.0795L51 70L50.4365 68.9205L33.3582 36.2072L50.4365 3.49377C51.0589 2.30142 50.5543 0.85153 49.3094 0.255354C48.0644 -0.340822 46.5506 0.142469 45.9281 1.33484L28.2863 35.1277L27.7228 36.2072L28.2863 37.2866L45.3645 70L28.2863 102.713Z" fill="white"/>
</svg>
