<svg width="56" height="161" viewBox="0 0 56 161" fill="none" xmlns="http://www.w3.org/2000/svg">
<path fill-rule="evenodd" clip-rule="evenodd" d="M0.618793 118.12L-1.82006e-06 119.362L0.618793 120.603L19.9902 159.465C20.6737 160.836 22.3359 161.392 23.7029 160.706C25.0699 160.021 25.624 158.353 24.9405 156.982L6.18795 119.362L24.9405 81.7414L25.5593 80.5L24.9405 79.2586L6.18795 41.6382L24.9405 4.01784C25.624 2.64664 25.0699 0.979262 23.7029 0.293654C22.3359 -0.391953 20.6736 0.163848 19.9901 1.53506L0.61879 40.3968L-5.21747e-06 41.6382L0.61879 42.8796L19.3714 80.5L0.618793 118.12ZM31.0595 118.12L30.4407 119.362L31.0595 120.603L50.4309 159.465C51.1144 160.836 52.7766 161.392 54.1436 160.706C55.5106 160.021 56.0647 158.353 55.3812 156.982L36.6287 119.362L55.3812 81.7414L56 80.5L55.3812 79.2586L36.6286 41.6382L55.3812 4.01784C56.0647 2.64663 55.5106 0.979261 54.1436 0.293653C52.7766 -0.391955 51.1143 0.163847 50.4308 1.53506L31.0595 40.3968L30.4407 41.6382L31.0595 42.8796L49.8121 80.5L31.0595 118.12Z" fill="#5C5C5C"/>
</svg>
