<svg width="121" height="44" viewBox="0 0 121 44" fill="none" xmlns="http://www.w3.org/2000/svg">
<path fill-rule="evenodd" clip-rule="evenodd" d="M98.7609 41.4069C97.642 40.3449 97.5918 38.5728 98.6488 37.4487L114.067 21.0531L98.3625 4.93138C97.2859 3.82612 97.3049 2.05337 98.4049 0.971821C99.505 -0.109724 101.27 -0.0905058 102.346 1.01476L118.988 18.0986C120.558 19.7107 120.581 22.2809 119.039 23.9204L102.701 41.2946C101.644 42.4186 99.8799 42.4689 98.7609 41.4069ZM74.3752 41.6216C73.2563 40.5596 73.2061 38.7874 74.2631 37.6634L89.681 21.2677L73.9768 5.14607C72.9002 4.04081 72.9192 2.26806 74.0193 1.18651C75.1193 0.104962 76.8839 0.124181 77.9605 1.22944L94.6019 18.3132C96.1722 19.9254 96.1948 22.4956 94.6531 24.1351L78.3151 41.5093C77.2581 42.6333 75.4942 42.6836 74.3752 41.6216ZM49.8774 37.8781C48.8204 39.0021 48.8706 40.7743 49.9895 41.8363C51.1085 42.8983 52.8724 42.848 53.9294 41.724L70.2674 24.3498C71.8091 22.7103 71.7865 20.14 70.2162 18.5279L53.5748 1.44413C52.4982 0.338867 50.7336 0.319649 49.6336 1.40119C48.5335 2.48274 48.5145 4.2555 49.5911 5.36076L65.2953 21.4824L49.8774 37.8781ZM25.6038 42.051C24.4849 40.989 24.4347 39.2168 25.4917 38.0928L40.9096 21.6971L25.2054 5.57544C24.1288 4.47018 24.1478 2.69743 25.2479 1.61588C26.3479 0.534335 28.1125 0.553554 29.1891 1.65881L45.8305 18.7426C47.4008 20.3547 47.4234 22.925 45.8817 24.5645L29.5437 41.9387C28.4867 43.0627 26.7228 43.113 25.6038 42.051ZM1.10602 38.3075C0.04901 39.4315 0.0992123 41.2036 1.21814 42.2657C2.33708 43.3277 4.10101 43.2774 5.15802 42.1533L21.496 24.7792C23.0377 23.1397 23.0151 20.5694 21.4448 18.9573L4.80341 1.8735C3.72677 0.76824 1.96222 0.749022 0.862158 1.83057C-0.237898 2.91212 -0.256892 4.68487 0.819744 5.79013L16.5239 21.9118L1.10602 38.3075Z" fill="#454545"/>
</svg>
